<svg width="20" height="21" viewBox="0 0 20 21" fill="none" xmlns="http://www.w3.org/2000/svg">
<path d="M15.8333 5.5V17.1667C15.8333 17.6087 15.6577 18.0326 15.3451 18.3452C15.0326 18.6577 14.6087 18.8333 14.1666 18.8333H5.83329C5.39127 18.8333 4.96734 18.6577 4.65478 18.3452C4.34222 18.0326 4.16663 17.6087 4.16663 17.1667V5.5" stroke="#FF0000" stroke-opacity="0.5" stroke-linecap="round" stroke-linejoin="round"/>
<path d="M2.5 5.5H17.5" stroke="#FF0000" stroke-opacity="0.5" stroke-linecap="round" stroke-linejoin="round"/>
<path d="M6.66663 5.50002V3.83335C6.66663 3.39133 6.84222 2.9674 7.15478 2.65484C7.46734 2.34228 7.89127 2.16669 8.33329 2.16669H11.6666C12.1087 2.16669 12.5326 2.34228 12.8451 2.65484C13.1577 2.9674 13.3333 3.39133 13.3333 3.83335V5.50002" stroke="#FF0000" stroke-opacity="0.5" stroke-linecap="round" stroke-linejoin="round"/>
</svg>
